<?xml version="1.0" encoding="UTF-8"?>
<svg xmlns="http://www.w3.org/2000/svg" viewBox="0 0 2048 2048">
  <defs>
    <style>
      .cls-1, .cls-2 {
        fill: #f60;
      }

      .cls-3 {
        fill: #333;
      }

      .cls-4 {
        fill: none;
      }

      .cls-4, .cls-2 {
        stroke: #333;
        stroke-miterlimit: 10;
        stroke-width: 30px;
      }
    </style>
  </defs>
  <g id="Layer_3" data-name="Layer 3">
    <path class="cls-1" d="m989.03,463.3s-53.75,185.1-48.46,237.53,50.07,42.59,50.07,42.59l92.45,39.82s116.77,34.88,129.69,29.56,41.4-17.36,41.4-17.36l-30.86-100.46,45.04-17.94,73.09,12.3,48.12-22.51,22.22-37.1-25.19-59.9,35.46-9.95-25.81-39.42-73.12-44.01s-43.25-73.62-103.17-85.02c-59.92-11.4-152.63-1.11-152.63-1.11,0,0-53.49-83.43-65.41-91.52-11.92-8.09-1.35-8.62-1.35-8.62l-69.27,63.19-27.57,75.63s33.52,26.41,64.2,30.19,21.1,4.11,21.1,4.11Z"/>
    <path class="cls-1" d="m1223.32,1122.69s-34.22,75.35-36.37,126.23l44.53,30.22s60.92,17.61,76.54,0c15.62-17.61,47.71-61.81,16.6-89.69s-101.29-66.76-101.29-66.76Z"/>
    <path class="cls-1" d="m885.06,1876.65l-11.83-183.69-71.68-53.98-62.86-89.4v-150.33l94.89-97.85s89.44-8.36,135.31,4.59c45.86,12.95,98.98,36.84,126.77,96.67s32.32,84.74,33.29,147.78-64.15,257.09-64.15,257.09c0,0,107.46-4.25,155.17,25.79,47.71,30.04,64.93,76.82,73,98.62,8.07,21.8-30.63,19.92-30.63,19.92l-377.26-75.21Z"/>
  </g>
  <g id="Layer_2" data-name="Layer 2">
    <path class="cls-3" d="m1392.16,735.74c-.82.69-1.65,1.37-2.48,2.04-.55.44-4.21,3.3-1.34,1.1s-.53.39-1.09.8c-1.09.81-2.19,1.61-3.3,2.4-3.93,2.8-7.96,5.45-12.08,7.97-8.26,5.04-16.85,9.53-25.66,13.52-1.19.54-2.39,1.07-3.6,1.59-.54.23-1.08.46-1.61.69-1.99.88,3.89-1.6,1.87-.79-2.47.98-4.93,2-7.42,2.95-4.91,1.87-9.87,3.61-14.87,5.21-10.15,3.25-20.47,5.98-30.89,8.22-5.42,1.17-10.87,2.21-16.35,3.12-2.53.42-5.06.82-7.6,1.19-.64.09-1.28.18-1.91.27-3.02.46,1.9-.24,1.91-.25-.34.52-4.11.52-4.82.61-11.25,1.35-22.55,2.21-33.88,2.61-23.29.82-46.58-.38-69.69-3.25-4.24-.53,4.17.59-.8-.11-1.35-.19-2.71-.39-4.06-.59-3.05-.46-6.09-.95-9.12-1.47-5.74-.99-11.46-2.1-17.16-3.32-11.74-2.52-23.37-5.54-34.85-9.06s-22.09-7.31-32.86-11.7c-.63-.26-1.26-.52-1.89-.78-3.37-1.37,3.27,1.41,1,.43-1.25-.54-2.51-1.07-3.75-1.62-2.8-1.23-5.59-2.49-8.37-3.79-5.38-2.52-10.69-5.17-15.93-7.96-10.12-5.38-19.98-11.27-29.5-17.67-4.87-3.28-9.63-6.71-14.32-10.24-3.28-2.47,3.07,2.43-.72-.57-1.05-.83-2.09-1.66-3.13-2.51-2.33-1.89-4.64-3.83-6.91-5.79-8.7-7.53-16.96-15.58-24.65-24.14-3.91-4.35-7.64-8.85-11.28-13.43-1.85-2.32,2.56,3.39-.25-.34-.81-1.07-1.61-2.15-2.39-3.23-1.78-2.44-3.52-4.92-5.21-7.43-6.56-9.72-12.43-19.9-17.55-30.45-1.28-2.64-2.51-5.3-3.7-7.99-.58-1.3-2.06-5.63-.24-.49-.58-1.64-1.33-3.23-1.96-4.85-2.2-5.59-4.19-11.27-5.98-17-3.76-12.07-6.62-24.41-8.61-36.89-.27-1.68-.51-3.36-.76-5.05-.21-1.41.3-2.63.19,1.39.02-.7-.2-1.61-.28-2.28-.41-3.43-.94-6.93-1.06-10.39-.2-6.18.37-12.5.75-18.66s.9-12.43,1.56-18.63c.32-2.95.68-5.89,1.04-8.84.39-3.09-.63,4.47.06-.35.24-1.7.5-3.39.76-5.08,1.75-11.19,4-22.31,6.77-33.3s5.97-21.48,9.75-31.96c1.78-4.94,3.72-9.81,5.7-14.68.91-2.24-1.78,4.06-.02.09.55-1.25,1.1-2.5,1.66-3.75,1.11-2.48,2.26-4.94,3.43-7.38,8.75-18.18,19.33-35.33,31.43-51.45,2.39-3.19-2.68,3.39-.21.27.79-1,1.58-2,2.38-3,1.59-1.98,3.21-3.94,4.86-5.88,3.09-3.64,6.26-7.2,9.53-10.68,6.55-7,13.45-13.67,20.65-19.99,3.63-3.18,7.33-6.28,11.11-9.28.86-.68,1.77-1.32,2.59-2.04-4.42,3.89-1.59,1.23-.37.31,1.97-1.49,3.96-2.95,5.97-4.39,7.78-5.58,15.82-10.79,24.09-15.62s16.23-9,24.62-12.96c2.1-.99,4.2-1.96,6.32-2.9,1.12-.5,2.25-.99,3.37-1.48,4.02-1.76-3.46,1.42-.16.06,4.42-1.81,8.86-3.57,13.34-5.21,17.72-6.48,35.98-11.45,54.52-14.93,4.58-.86,9.18-1.63,13.79-2.31,1.09-.16,2.18-.29,3.26-.46-6.64,1.05-1.78.24-.3.05,2.45-.31,4.91-.59,7.36-.84,9.43-.98,18.91-1.59,28.39-1.83,19.15-.48,37.89,1.22,56.91,3.01-7.17-.67,1.19.19,3,.47,2.46.38,4.91.78,7.35,1.2,4.62.81,9.23,1.7,13.82,2.69,9.32,2,18.56,4.37,27.69,7.1s18.42,5.93,27.43,9.45c2.06.81,4.11,1.64,6.16,2.48,4.02,1.64-3.12-1.37-.48-.21,1.27.56,2.54,1.1,3.81,1.66,4.3,1.9,8.57,3.89,12.79,5.97,17.32,8.53,33.91,18.54,49.47,29.96,1.91,1.4,3.77,2.89,5.69,4.27-.01-.01-3.79-2.97-1.65-1.27.44.35.88.69,1.32,1.04.99.78,1.97,1.57,2.95,2.36,3.82,3.09,7.56,6.26,11.23,9.52,7.29,6.47,14.27,13.29,20.92,20.41,3.41,3.65,6.72,7.38,9.95,11.19,1.48,1.75,2.95,3.52,4.39,5.3.72.89,1.44,1.79,2.16,2.69.36.45.71.91,1.07,1.36,2.11,2.65-2.73-3.62-.7-.91,6.04,8.06,11.82,16.27,17.13,24.82s10.43,17.76,14.98,26.99c2.36,4.78,4.6,9.62,6.72,14.52.24.56.48,1.13.73,1.69.89,2.03-1.56-3.8-.74-1.74.52,1.29,1.06,2.57,1.58,3.86,1.04,2.6,2.06,5.21,3.04,7.84,7.84,21.03,13.56,42.84,17.31,64.97.46,2.69.88,5.39,1.28,8.09.2,1.36.36,2.73.58,4.09-.98-5.99-.03-.14.16,1.4.72,5.95,1.31,11.91,1.77,17.88.98,12.76,1.57,25.65,1.26,38.45-.15,6.21-.93,12.46-1.63,18.62-.18,1.6-.37,3.2-.57,4.81-.1.77-.2,1.54-.3,2.31-.48,3.82.73-5.16.17-1.27-.5,3.44-1,6.87-1.57,10.3-2.56,15.47-6.03,30.79-10.49,45.82-2.45,8.27-5.2,16.45-8.27,24.51-.78,2.05-1.58,4.09-2.4,6.12-.39.96-.79,1.92-1.18,2.89-1,2.49.94-2.2.91-2.13-.33.71-.62,1.45-.93,2.17-1.79,4.14-3.67,8.25-5.64,12.31-8.43,17.4-18.59,33.79-30.18,49.25-1.66,2.21,1.17-1.51,1.21-1.56-.48.55-.9,1.15-1.36,1.73-.73.92-1.46,1.84-2.21,2.75-1.68,2.07-3.39,4.11-5.14,6.13-3.45,3.99-7.01,7.89-10.68,11.67-7.52,7.74-15.52,15.03-23.91,21.82-1,.81-2.02,1.61-3.03,2.41-3.11,2.47,3.38-2.51-.61.46-2.24,1.67-4.5,3.33-6.78,4.95-4.82,3.41-9.75,6.66-14.77,9.76-10.44,6.45-21.3,12.22-32.45,17.34-2.85,1.31-5.95,2.34-8.7,3.84.32-.17,4.02-1.65,1.16-.5-.71.28-1.41.58-2.11.86-1.78.72-3.56,1.42-5.35,2.11-6.26,2.4-12.59,4.62-18.97,6.66-13.87,4.44-28.01,8.04-42.29,10.92-7.78,1.57-15.61,2.93-23.46,4.09-1.21.18-6.72,1.15-2.18.33-1.86.34-3.78.49-5.65.72-4.33.52-8.66.99-12.99,1.4-18.03,1.72-36.14,2.51-54.24,2.55s-37.8-.66-56.63-2.29c-4.35-.38-8.7-.8-13.04-1.28-2.24-.25-4.49-.51-6.73-.78-.98-.12-1.97-.25-2.95-.37-3.56-.44,1.94.29-.32-.04-8.16-1.19-16.31-2.46-24.41-4-14.28-2.72-28.43-6.1-42.36-10.27-6.49-1.94-12.93-4.05-19.31-6.35-2.95-1.06-5.88-2.16-8.79-3.3-1.34-.52-2.68-1.05-4.01-1.59s-6.69-3.17-1.56-.62c-10.1-5.01-20.4-9.34-30.24-14.9-8.5-4.81-16.76-10.06-24.69-15.77-1.68-1.21-3.33-2.45-4.98-3.69-3.4-2.55,3.23,2.59.37.29-.86-.69-1.73-1.37-2.58-2.06-3.16-2.56-6.25-5.2-9.27-7.93-5.2-4.69-10.17-9.63-14.87-14.83-1.98-2.19-3.91-4.42-5.78-6.7-.86-1.04-1.68-2.1-2.53-3.15-1.85-2.31,3.22,4.27,1.3,1.68-.39-.52-.78-1.04-1.17-1.56-2.46-3.32-4.81-6.74-6.97-10.26-1.76-2.86-3.53-5.81-4.86-8.9-3.75-8.68-17.14-11.28-24.63-6.46-9.01,5.81-10.47,15.34-6.46,24.63,6.01,13.93,16.81,26.62,26.95,37.62,27.57,29.9,63.09,51.14,100.42,66.53,61.69,25.44,130.34,33.14,196.59,32.31,64.75-.81,130.03-11.31,188.97-39.02,43.77-20.57,81.48-51.43,110.66-89.9,23.61-31.13,40.42-67.35,51.32-104.77,4.44-15.27,7.87-30.84,10.38-46.54,2.43-15.23,4.8-30.92,4.8-46.38.02-48.94-7.55-98.57-25.34-144.31-16.05-41.28-39.37-79.16-69.95-111.3-28.03-29.47-61.87-53.81-98.54-71.37-37.89-18.14-78.02-29.42-119.67-34.51-39.85-4.87-80.39-3-119.74,4.86-38.89,7.77-76.87,22.23-110.82,42.79-35.94,21.77-66.94,50.36-91.85,84.13-26.11,35.4-44.19,76.81-54.3,119.54-5.88,24.87-9.25,50.44-10.5,75.96-1.33,27.21,4.37,55.33,13,81.1,16.02,47.79,45.32,90.34,83.88,122.76,38.54,32.4,84.04,55.36,132.18,69.75,47.11,14.08,97.16,20.24,146.28,18.05,46.71-2.09,93.21-11.5,135.73-31.27,18.35-8.53,35.34-19.4,50.86-32.38,7.25-6.06,6.73-19.28,0-25.46-7.71-7.08-17.72-6.47-25.46,0h0Z"/>
    <path class="cls-3" d="m881.86,1688.8c-1.17-.85-2.33-1.72-3.48-2.6-.78-.59-3.21-2.47-.09-.06s.18.13-.64-.51c-1.88-1.48-3.76-2.98-5.62-4.49-10.99-8.94-21.61-18.34-31.83-28.14-13.7-13.13-26.72-26.99-38.73-41.68-1.67-2.04-3.31-4.11-4.95-6.18-2.11-2.65,1.86,2.47-.19-.24-.87-1.15-1.74-2.29-2.6-3.45-3.09-4.15-6.1-8.37-9-12.66-5.96-8.81-11.49-17.92-16.42-27.35-2.51-4.79-4.83-9.67-7.02-14.61-.25-.56-.55-1.13-.74-1.71,0,0,1.33,3.34.62,1.44-.43-1.16-.93-2.3-1.38-3.45-.97-2.49-1.89-5.01-2.75-7.54-1.71-5.03-3.21-10.14-4.46-15.31-.57-2.37-1.09-4.76-1.55-7.15-.23-1.2-.45-2.39-.65-3.59-.14-.81-.63-5.24-.4-2.42s-.11-1.13-.18-1.83c-.13-1.21-.24-2.42-.33-3.63-.2-2.63-.33-5.26-.38-7.89-.1-5.39.18-10.78.5-16.16s.7-10.36,1.2-15.52c.26-2.64.54-5.28.86-7.92.05-.4.17-3.51.45-3.62.04-.01-.54,3.81-.24,1.79.12-.79.22-1.59.34-2.38,2.82-19.28,7.32-38.41,14.43-56.58.4-1.02.83-2.02,1.22-3.04s-1.58,3.58-.12.3c.95-2.13,1.91-4.26,2.92-6.36,2-4.15,4.16-8.22,6.49-12.19,2.21-3.77,4.56-7.44,7.08-11.01.6-.85,1.21-1.7,1.82-2.54.41-.56,2.59-3.46.79-1.08s.41-.49.85-1.02c.76-.94,1.54-1.87,2.33-2.78,5.81-6.77,12.27-12.67,19.1-18.37.84-.7-3.15,2.33-.29.25,1-.73,2-1.46,3.01-2.17,1.9-1.33,3.83-2.61,5.8-3.84,3.85-2.42,7.83-4.65,11.9-6.69,2-1,4.03-1.96,6.07-2.88.37-.16,1.72-.57,2.08-.91.01-.01-3.5,1.4-1.67.71,1.26-.47,2.5-1,3.75-1.48,4.63-1.75,9.33-3.28,14.09-4.62,5.21-1.46,10.49-2.69,15.81-3.7,2.56-.49,5.13-.9,7.7-1.31.62-.1,1.33-.28,1.97-.29-.05,0-3.58.44-1.47.2,1.57-.18,3.14-.38,4.71-.55,12.21-1.29,24.54-1.68,36.81-1.26,5.49.19,10.96.66,16.41,1.29,3.36.39-3.66-.61.99.16,1.27.21,2.54.41,3.81.63,2.73.48,5.44,1.03,8.14,1.63,10.45,2.34,20.45,5.79,30.43,9.63,1.9.73-1.46-.62-1.45-.61.55.11,1.19.51,1.7.74,1.13.51,2.25,1.01,3.37,1.53,2.42,1.12,4.81,2.3,7.19,3.51,4.72,2.43,9.35,5.04,13.87,7.83s8.56,5.49,12.7,8.45c.99.71,1.97,1.43,2.95,2.15.53.39,3.71,2.71,1.57,1.16s1.01.8,1.53,1.22c1.26,1.01,2.52,2.04,3.76,3.07,7.89,6.58,15.35,13.67,22.37,21.17,3.41,3.65,6.72,7.39,9.93,11.22,1.53,1.83,3.04,3.68,4.52,5.55.43.54,2.63,3.68,1.15,1.46s.99,1.34,1.45,1.96c5.92,7.97,11.41,16.25,16.47,24.79s9.35,16.72,13.37,25.42c.92,1.99,1.79,3.99,2.68,5.99,1.29,2.91-1.58-3.89.08.18.47,1.16.94,2.31,1.4,3.48,1.61,4.06,3.11,8.17,4.5,12.31,2.68,7.97,4.94,16.09,6.67,24.33.79,3.77,1.38,7.56,2.01,11.35.37,2.22-.51-4.35-.29-2.13.05.44.11.88.16,1.32.09.87.2,1.74.28,2.61.18,1.84.33,3.69.44,5.54,1.08,17.96-1.62,36.34-3.57,54.16-.61,5.58-1.26,11.16-1.96,16.74-.34,2.76-.7,5.52-1.06,8.28-.46,3.58.39-2.78-.11.82-.26,1.89-.52,3.77-.79,5.66-1.75,12.4-3.7,24.77-5.85,37.1-8.54,48.99-19.68,98.36-38.64,144.48-.7,1.7-1.24,3.53-.24.6-.42,1.23-1.05,2.42-1.57,3.61-1.13,2.55-2.29,5.09-3.49,7.61-2.21,4.66-4.55,9.25-7.02,13.77-6.91,12.66,1.97,25.96,15.54,27.08,16.6,1.37,33.17,3.27,49.69,5.38,1.72.22,3.43.44,5.14.67,1.2.16,5.06.76-.57-.08.71.11,1.42.19,2.14.29,4.01.55,8.03,1.12,12.03,1.72,7.94,1.18,15.88,2.44,23.79,3.82,15.47,2.7,30.91,5.79,46.09,9.84,6.62,1.77,13.2,3.72,19.65,6.04,1.38.5,2.76,1.01,4.13,1.55.75.29,1.58.77,2.36.95-.01,0-4.46-1.99-2.03-.85s5.04,2.32,7.47,3.68c.99.55,1.96,1.14,2.91,1.74s6.68,4.84,3.26,2.1c3.91,3.13,7.58,6.53,10.96,10.23,1.49,1.64,2.89,3.34,4.29,5.04-3.07-3.74,1.11,1.62,1.8,2.63,2.58,3.8,4.92,7.76,7.02,11.84.92,1.78,1.79,3.58,2.61,5.4l.48,1.07c.78,1.79.63,1.43-.45-1.1-.07.21.84,2.09.84,2.12,1.43,3.66,2.68,7.4,3.76,11.18.86,3.02,1.61,6.07,2.22,9.15.27,1.35.46,2.72.72,4.07.61,3.19-.51-4.93-.24-1.82.06.68.15,1.36.21,2.04.16,1.83.05,3.66.15,5.49.19,3.24.97-5.39.37-2.59-.17.8-.31,1.61-.44,2.42-.22,1.29-.48,2.58-.68,3.87-.28,1.76-2.2,4.1,1.1-2.17-1.84,3.48,2.18-2.2,1.36-1.42-2.21,2.1,4.51-2.88,1.63-1.21-2.73,1.58,4.92-1.18,1.36-.55-.95.17-2.43.4-3.31.76,3.86-1.54,4.05-.4,1.93-.3-1.11.05-2.22.15-3.33.19-4.19.12-8.4-.12-12.58-.46-2.74-.23-5.47-.55-8.2-.85-4.47-.49.96.18-2.01-.25-6.26-.91-12.5-1.96-18.73-3.03-21.42-3.66-42.79-7.6-64.16-11.55-56.96-10.53-113.86-21.39-170.75-32.29-35.71-6.85-71.36-14.54-107.21-20.67-.58-.1-1.15-.22-1.73-.34,4.4,5.79,8.81,11.57,13.21,17.36-1.39-27.08-2.77-54.15-4.16-81.23-2.21-43.1-4.41-86.2-6.62-129.3-.5-9.82-1-19.63-1.51-29.45s-7.93-18.45-18-18c-9.34.42-18.52,7.93-18,18,1.39,27.08,2.77,54.15,4.16,81.23,2.21,43.1,4.41,86.2,6.62,129.3.5,9.82,1,19.63,1.51,29.45.38,7.43,5.28,15.82,13.21,17.36,31.37,6.09,62.75,12.14,94.14,18.17,58.7,11.28,117.42,22.49,176.2,33.4,23.01,4.27,46.02,8.52,69.08,12.52,7.04,1.22,14.09,2.44,21.16,3.5,15.42,2.32,33.85,5.97,49.2,1.03,27.01-8.7,22.58-42.74,16.1-63.83-5.84-19.02-15.46-36.88-28.89-51.62-11.85-13.01-26.17-21.59-42.43-27.74-28.96-10.96-60.43-15.91-90.92-20.47-25.02-3.74-50.16-6.82-75.35-9.1-1.26-.11-2.51-.23-3.77-.33,5.18,9.03,10.36,18.06,15.54,27.08,24.32-44.53,37.71-95.04,48.03-144.41,10.17-48.69,17.2-98.27,20.87-147.88,2.69-36.34-8.49-72.38-23.98-104.86-18.17-38.11-45.02-73.42-78.2-99.67-37.57-29.73-82.22-48.15-130.49-49.18-47.29-1.01-94.82,9.12-132.53,38.83-31.64,24.92-50.84,62.53-60.66,100.97-5.49,21.51-8.38,43.76-9.74,65.9s.91,45.29,8.08,67.05c14.26,43.27,41.77,81.19,72.5,114.28,20.17,21.71,42.28,41.58,65.84,59.54,1.2.91,2.39,1.82,3.61,2.7,7.66,5.53,20.39,1.57,24.63-6.46,4.92-9.32,1.72-18.72-6.46-24.63h0Z"/>
    <path class="cls-3" d="m1185.4,1675.68c0,29.07,0,58.14,0,87.21v12.33c0,8.73,6.92,14.15,15,15,14.34,1.5,28.67,3,43.01,4.5,33.7,3.53,67.41,7.05,101.11,10.58,39.11,4.09,78.22,8.18,117.34,12.28,30.56,3.2,61.13,6.39,91.69,9.59l23.14,2.42c7.68.8,15.44.38,23.15.38h8.03c7.12,0,12.08-4.76,14.46-11.01,10.1-26.51,13.56-55.86,1.58-82.31-9.64-21.27-29.33-36.65-50.13-46.21-46.44-21.33-100.36-24.52-150.78-23.95-18.62.21-37.22,1.2-55.79,2.7,4.32,7.52,8.63,15.05,12.95,22.57,12.46-18.55,21.55-39.41,29.8-60.09,10.74-26.94,19.26-54.8,25.54-83.11,6.9-31.09,11.32-63.07,11.36-94.95.04-29.87-3.66-60.73-14.77-88.64-12.81-32.19-34.39-59.38-64.84-76.52-7.06-3.97-16.39-1.69-20.52,5.38-4.05,6.93-1.7,16.54,5.38,20.52,3.1,1.75,6.15,3.59,9.11,5.57,1.45.97,2.88,1.97,4.29,3,.56.41,1.11.83,1.67,1.24-3.16-2.31-.5-.38.21.2,5.24,4.24,10.13,8.92,14.62,13.95,1.11,1.24,2.19,2.51,3.24,3.79.42.51.83,1.04,1.25,1.55,2.24,2.66-1.9-2.74.08.12s3.86,5.38,5.64,8.19c3.57,5.63,6.73,11.52,9.49,17.59.35.76.65,1.55,1.02,2.3.97,1.98-1.39-3.49-.14-.32.56,1.42,1.13,2.83,1.67,4.25,1.26,3.35,2.42,6.75,3.47,10.17,2.05,6.65,3.71,13.41,5.05,20.24.65,3.31,1.22,6.63,1.72,9.96.13.88.25,1.77.38,2.65-.55-3.71-.21-1.61-.11-.79.25,2.15.51,4.3.72,6.45.72,7.28,1.14,14.6,1.3,21.91.32,15.01-.43,30.04-1.99,44.97-.35,3.4-.77,6.79-1.18,10.18-.46,3.74.37-2.41,0-.03-.14.94-.26,1.88-.4,2.82-.3,2.07-.61,4.13-.94,6.2-1.18,7.48-2.54,14.93-4.07,22.35-5.73,27.82-13.68,55.23-23.7,81.81-1.25,3.31-2.53,6.62-3.85,9.9-.7,1.74-1.41,3.47-2.12,5.21-.23.57-.46,1.15-.71,1.7,1.86-4.12.31-.73-.09.19-2.54,5.91-5.21,11.77-8.04,17.55-4.61,9.41-9.61,18.68-15.46,27.39s1.85,23.47,12.95,22.57c38.38-3.11,77.1-4.08,115.48-.44,2.9.28,5.8.58,8.69.91,1.59.18,3.18.39,4.78.58,1.08.13,3.44.28-.95-.14,1.01.1,2.02.28,3.03.42,6.16.89,12.3,1.93,18.4,3.16,11.61,2.35,23.11,5.37,34.23,9.48,1.38.51,2.75,1.04,4.11,1.58.49.2.98.41,1.47.6,2.81,1.09-3.4-1.53-.67-.28s5.19,2.34,7.73,3.62c4.66,2.37,9.19,5.01,13.49,7.98.99.69,1.95,1.42,2.94,2.12,2.31,1.62-2.91-2.41-.77-.59.45.38.92.75,1.38,1.13,1.98,1.65,3.89,3.39,5.72,5.22,1.71,1.72,3.3,3.54,4.87,5.39,2.4,2.84-1.97-2.87.17.23.78,1.13,1.57,2.25,2.31,3.41,1.48,2.34,2.74,4.77,3.96,7.25,1.61,3.27-1.28-3.49.38.92.5,1.33.95,2.67,1.36,4.02.85,2.8,1.44,5.64,1.97,8.51.06.34.07,1.13.23,1.48-1.57-3.42-.29-2.36-.09-.21.14,1.56.23,3.12.28,4.68.1,3.29,0,6.59-.28,9.87-.05.57-.1,1.14-.16,1.71-.15,1.46.33,4.79,0,.37.13,1.67-.61,3.76-.93,5.39-1.58,7.99-4.01,15.77-6.91,23.38,4.82-3.67,9.64-7.34,14.46-11.01-9.49,0-19.19.63-28.64-.12-6.04-.48-12.07-1.26-18.1-1.89-28.51-2.98-57.02-5.97-85.54-8.95l-116.42-12.18c-35.14-3.68-70.29-7.35-105.43-11.03-17.44-1.82-35.04-4.55-52.56-5.5-.26-.01-.51-.05-.77-.08l15,15c0-29.07,0-58.14,0-87.21v-12.33c0-7.85-6.9-15.36-15-15s-15,6.59-15,15h0Z"/>
    <path class="cls-3" d="m712.85,1480.42c-2.68,2.46-5.44,4.84-8.27,7.12-.67.54-1.35,1.05-2.01,1.6-.54.44,3.77-2.83.91-.72-1.49,1.1-2.98,2.2-4.49,3.26-6.05,4.25-12.36,8.13-18.87,11.64-3.26,1.76-6.56,3.43-9.91,5.01-1.63.77-3.27,1.52-4.92,2.24-.82.36-1.68.68-2.49,1.08-.04.02,4.47-1.83,2.03-.86-.48.19-.96.39-1.44.59-7.16,2.9-14.48,5.42-21.91,7.57-7.55,2.19-15.2,3.99-22.93,5.41-1.85.34-3.7.66-5.56.95-.93.15-1.86.29-2.79.43-.4.06-.8.11-1.2.17-3.16.49,3.79-.47,1.85-.24-3.89.46-7.78.92-11.69,1.23-16.07,1.3-32.11.82-48.11-1.01-2.93-.33,4.57.67.99.14-.95-.14-1.89-.27-2.84-.42-2.03-.31-4.05-.66-6.07-1.03-4.04-.74-8.06-1.6-12.05-2.57-7.87-1.91-15.63-4.27-23.22-7.08-1.81-.67-3.6-1.36-5.39-2.08-.71-.28-4.08-1.69-.96-.38s-.67-.31-1.32-.6c-3.66-1.63-7.27-3.37-10.82-5.22-7.29-3.8-14.33-8.06-21.06-12.78-1.61-1.13-3.21-2.29-4.78-3.47-.34-.25-.67-.51-1.01-.76-2.15-1.6,1.48,1.14,1.53,1.18-.83-.76-1.78-1.41-2.66-2.12-3.32-2.7-6.55-5.52-9.67-8.44-6.18-5.79-11.95-12.01-17.28-18.6-.74-.92-1.43-1.94-2.22-2.8,1.31,1.43,2.13,2.82.55.68-1.44-1.95-2.86-3.91-4.24-5.9-2.54-3.68-4.95-7.46-7.23-11.31s-4.55-7.99-6.62-12.1c-1.1-2.17-2.15-4.37-3.17-6.57-.48-1.04-.95-2.09-1.42-3.14-.2-.45-.4-.91-.6-1.36-1.13-2.57,0-.25.4.97-3.16-9.72-7.15-19.05-9.83-28.97-2.83-10.48-4.99-21.14-6.56-31.88-.11-.77-.22-1.55-.33-2.33-.3-1.98.27,1.76.23,1.72-.5-.48-.49-4.02-.57-4.74-.34-3.02-.64-6.04-.9-9.07-.51-6.06-.86-12.13-1.06-18.2-.43-13.27-.13-26.56.74-39.8.46-7,1.1-13.98,1.86-20.95s-5.01-13.57-10.76-15.99c-5.82-2.46-14.87-1.81-19.12,3.62-43.67,55.85-70.62,122.18-73.87,193.34-2.94,64.45,13.91,129.16,44.8,185.56,30.59,55.85,75.5,104.05,129.29,138.16,54.48,34.55,118.93,53.76,183.59,52.13,74.27-1.88,145.3-30.58,204.4-74.77,8.95-6.69,17.71-13.64,26.24-20.87,7.01-5.94,6.57-18.71,0-24.75-7.46-6.85-17.27-6.34-24.75,0-3.92,3.32-7.88,6.59-11.9,9.79-.94.75-1.89,1.49-2.84,2.24-3.65,2.9,1.85-1.38-.44.34s-4.54,3.44-6.83,5.13c-7.99,5.87-16.17,11.48-24.56,16.77-15.41,9.73-31.49,18.42-48.16,25.82-1.1.49-7.2,3.34-2.7,1.2-1.85.88-3.83,1.58-5.73,2.33-4.17,1.65-8.37,3.22-12.59,4.71-7.89,2.77-15.89,5.24-23.97,7.4s-15.82,3.89-23.83,5.36c-3.75.69-7.51,1.31-11.28,1.86-1.45.21-4.6-.12.15,0-.69-.02-1.54.2-2.25.28-2.24.28-4.48.53-6.72.75-15.59,1.56-31.3,1.9-46.95,1-3.8-.22-7.6-.51-11.38-.88-1.8-.17-3.59-.36-5.39-.57-.72-.08-1.43-.17-2.15-.25-5.04-.62,2.48.39-.7-.08-7.45-1.09-14.85-2.37-22.21-3.97-14.59-3.17-28.94-7.42-42.91-12.66-3.32-1.24-6.6-2.56-9.88-3.89-3.57-1.45,3.8,1.65.27.12-.65-.28-1.3-.56-1.95-.84-1.95-.85-3.88-1.72-5.81-2.61-6.75-3.11-13.39-6.44-19.91-10-13.21-7.2-25.92-15.29-38.07-24.17-1.57-1.15-3.14-2.31-4.69-3.49-.55-.42-1.11-.93-1.69-1.29,4.12,2.51,1.16.89.18.13-3.07-2.41-6.09-4.87-9.08-7.38-5.71-4.8-11.26-9.77-16.66-14.91-10.81-10.3-20.98-21.26-30.45-32.81-1.13-1.38-2.25-2.76-3.36-4.15-.83-1.05-4.13-5.94-1.21-1.5-2.14-3.25-4.73-6.26-7.01-9.42-4.36-6.07-8.54-12.27-12.53-18.6-8.07-12.8-15.34-26.09-21.75-39.8-1.58-3.39-3.09-6.8-4.59-10.23-.43-.98-1.04-3.03.51,1.23-.36-1-.82-1.97-1.23-2.96-.81-1.98-1.6-3.96-2.37-5.95-2.7-6.96-5.18-14.02-7.43-21.14-4.5-14.25-8.07-28.8-10.65-43.53-.61-3.51-1.15-7.03-1.67-10.56-.57-3.87.53,4.3.05.41-.09-.71-.18-1.42-.26-2.12-.26-2.13-.49-4.25-.71-6.39-.76-7.47-1.25-14.97-1.48-22.48-.46-15.32.19-30.67,2-45.89.11-.9.22-1.8.33-2.71.46-3.78-.52,3.38-.12.86.32-1.98.58-3.97.89-5.95.64-3.98,1.35-7.95,2.15-11.9,1.53-7.62,3.36-15.18,5.47-22.66s4.58-15.11,7.31-22.52c1.31-3.58,2.7-7.13,4.14-10.65.15-.36,1.76-3.77.45-1.1s.33-.75.48-1.09c.93-2.13,1.88-4.24,2.85-6.34,7.02-15.16,15.24-29.76,24.49-43.67,2.28-3.43,4.63-6.82,7.03-10.17,1.34-1.86,2.69-3.71,4.07-5.55.63-.84,1.27-1.67,1.9-2.51,2.61-3.47-2.33,2.97.36-.46l-29.87-12.37c-5.51,50.27-3.82,103.03,12.96,151.18,13.01,37.35,34.85,71.94,65.85,96.91,28.09,22.63,61.4,37.95,96.94,44.41s70.81,5.42,105.39-2.76c32.68-7.73,63.53-22.27,89.69-43.34,2.84-2.28,5.59-4.66,8.27-7.12,6.76-6.2,6.76-18.54,0-24.75-7.23-6.64-17.53-6.62-24.75,0h0Z"/>
    <path class="cls-4" d="m1067.93,1091.92c-27.74-220.88-216.95-227.32-192.8-81.87,29.27,249.52,129.57,220.94,327.3,256.25,50.62,25.68,131.54,43.18,128.2-44.65-22.59-95.12-163.93-122.65-262.7-129.72Z"/>
    <path class="cls-4" d="m1102.93,1731.23c3.84-5.58,94.83-11.96,181.18-173.05,86.34-161.09,77.73-267.42,73.43-365.25s-25.2-206.46-16.37-280.8"/>
    <path class="cls-3" d="m1314.97,879.6c1.09-.41,8.06-1.66,8.38-2.29-.16.31-4.86.26-2.09.33.58.01,1.19-.08,1.77-.09,1.36-.03,2.96.33,4.3.16-3.92.49-3.93-.71-1.89-.21.67.16,1.34.28,2.01.45,1.05.27,2.05.69,3.09.97,2.45.66-1.94-.74-2.08-.9.23.26,1.08.49,1.43.69,1.25.72,2.47,1.47,3.7,2.22,2.95,1.79-3.35-3.2-.3-.18.73.72,1.49,1.4,2.19,2.15.34.37.66.79,1.01,1.14,2.1,2.09-2.1-3.4-1.18-1.55.55,1.09,1.42,2.09,2.03,3.17,1.09,1.94,1.02,4.48-.04-.62.19.93.7,1.85.98,2.78.31,1.05.44,2.16.76,3.19.63,2.05-.3-5.24-.31-2.27,0,.6.08,1.2.09,1.81.02.98-.31,2.29-.14,3.25-.02-.14,1.06-4.93.32-2.64-.15.45-.2.96-.32,1.42-.2.78-1.71,4.75-.28,1.34s-.65.75-1.03,1.55c-1.48,3.11,3.15-3.13.15-.15-.79.79-1.64,1.57-2.4,2.38-2.2,2.32,3.12-1.99,1.2-.87-.66.39-1.28.9-1.93,1.31-1.41.89-2.89,1.62-4.38,2.38-2.53,1.3,3.85-1.35-.77.22-1.7.58-3.43,1.07-5.17,1.49-2.45.6-4.94,1-7.43,1.42-2.15.36-4.3.75-6.45,1.15-12.3,2.27-24.59,4.57-36.97,6.39-2.11.31-4.22.6-6.34.9-4.06.57,3.87-.5,1.06-.14-1.29.16-2.58.34-3.87.5-5.08.64-10.17,1.23-15.27,1.78-12.67,1.36-25.36,2.44-38.07,3.34-42.48,3-85.08,4.03-127.65,4.32-9.41.06-18.44,8.23-18,18s7.91,18.07,18,18c66.41-.45,133.2-2.29,199.02-11.87,13.18-1.92,26.24-4.41,39.34-6.8,10.83-1.97,21.6-3.98,31.11-9.98,13.29-8.39,22.35-22.29,22.27-38.31-.18-34.77-37.71-58.06-69.43-46.02-8.78,3.33-15.76,12.29-12.57,22.14,2.77,8.57,12.72,16.15,22.14,12.57h0Z"/>
    <path class="cls-3" d="m1134.91,939.87v47.49c0,7.01-.57,14.28,0,21.27.23,2.82.55-3.36.5-2.89-.29,2.68-.82,5.33-.94,8.03-.36,8.1,1.44,16.28,5.03,23.53,8.42,17.01,27.65,23.71,45.47,20.62,5.67-.98-4.75-.26-.46.17,2.07.21,4.19.21,6.26.27,21.5.69,43.02-.59,64.33-3.45,32.73-4.4,66.63-13.07,93.92-32.45,6.6-4.68,9.73-13.09,5.38-20.52-3.81-6.52-13.88-10.1-20.52-5.38-5.47,3.89-11.23,7.34-17.22,10.36-2.94,1.48-5.93,2.88-8.96,4.17,2.88-1.22-1.98.76-2.57.98-1.66.64-3.32,1.25-5,1.84-12.89,4.54-26.24,7.75-39.7,10.07-3.35.58-6.71,1.06-10.08,1.57,3.02-.46-.37.05-1.57.19-1.82.22-3.64.43-5.46.63-5.9.63-11.82,1.12-17.75,1.47-9.41.56-18.83.79-28.26.67-4.54-.06-9.14-.54-13.68-.47-1.49.02-2.98.26-4.46.5-.29.05-.58.15-.87.2-.25.04-.5.09-.74.14-2.52.54,1.39-.4,1.57-.2-.18-.2-3.44.16-3.78.15-.73-.01-1.47-.12-2.19-.12.32,0,2.6.7,1.05.12-.76-.29-1.66-.38-2.45-.59-.41-.11-2.91-1.12-1.33-.41s-.59-.4-.71-.47c-3.6-2.22.68.92-1.2-.81-.23-.21-2.39-2.53-1.34-1.24s-.66-1.06-.84-1.38c-.34-.59-.65-1.19-.97-1.8,1.21,2.35.23.6.06-.06-.39-1.6-.82-3.14-1.12-4.75.6,3.21.11.08.09-1.34-.02-1.13.07-2.26.1-3.39.09-2.97-.24,1.35-.27,1.54.26-1.63.55-3.28.64-4.93.34-5.88,0-11.88,0-17.76v-51.59c0-7.85-6.9-15.36-15-15s-15,6.59-15,15h0Z"/>
    <path class="cls-4" d="m1342.52,1040.67c38.57,17.77,115.31,123.36,96.62,192.1-18.65,41.05-57.73,38.61-80.62,19.23"/>
    <line class="cls-4" x1="873" y1="984" x2="791.19" y2="1326.8"/>
    <path class="cls-4" d="m731.16,1486.41c-39.88,8.61-103.35-66.11-96.86-115.91,0-28.7,28.48-458.37,28.48-458.37,4.96-143.16,135.3-121.05,230.36-128.89"/>
    <path class="cls-3" d="m1305.4,334.44c3.16,1.82,6.22,3.82,9.25,5.83,3.56,2.36,7.06,4.81,10.51,7.32,1.96,1.43,3.89,2.88,5.82,4.34,2.43,1.84-3.19-2.52.79.64,1.08.85,2.15,1.72,3.21,2.58,9.99,8.14,19.49,16.91,28.24,26.37,2.46,2.66,4.87,5.38,7.2,8.16.95,1.13,1.88,2.26,2.8,3.41.62.77,1.23,1.54,1.84,2.32-1.3-1.69-1.34-1.72-.12-.1,4.38,6.1,8.55,12.26,12.25,18.81,4.63,8.21,16.54,11.67,24.63,6.46,8.3-5.35,11.41-15.85,6.46-24.63-14.47-25.64-35.11-47.72-57.84-66.24-11.64-9.49-23.83-18.82-36.87-26.34-8.16-4.71-20.07-2.17-24.63,6.46s-2.26,19.6,6.46,24.63h0Z"/>
    <ellipse class="cls-2" cx="845.86" cy="566.83" rx="64.04" ry="84.83"/>
    <path class="cls-3" d="m844.11,372.09c-3.99-2.56-7.86-5.33-11.7-8.11-2-1.45-4-2.92-5.98-4.4-1.13-.84-2.25-1.69-3.37-2.54-.59-.45-1.18-.91-1.78-1.36-2.31-1.76,3.66,2.86,1.18.92-5.89-4.62-11.72-9.3-17.45-14.11-31.78-26.72-60.97-56.62-86.48-89.39,2.56,3.29-.54-.71-.87-1.15-1.23-1.62-2.45-3.25-3.66-4.88-2.14-2.89-4.25-5.8-6.33-8.74-3.93-5.55-7.75-11.18-11.45-16.89-8.22-12.69-15.8-25.78-22.72-39.22-3.59,8.81-7.17,17.63-10.76,26.44,6.17-1.78,12.5-3.09,18.8-4.31,3.21-.62,6.44-1.2,9.66-1.74,1.82-.3,3.64-.59,5.46-.86.96-.14,1.92-.28,2.88-.42.37-.05.74-.1,1.1-.16,2.96-.43-1.66.23-2.16.29,9.16-1,18.27-2.1,27.48-2.65,10.67-.65,21.38-.85,32.07-.56,5.68.15,11.37.44,17.03.88,2.92.23,5.84.49,8.75.79,1.48.15,2.95.32,4.42.49.74.09,1.48.18,2.22.27,2.49.29-.69-.04-1.44-.2,12.35,2.6,24.73,4.16,36.95,7.52,6.39,1.76,12.71,3.76,18.95,6,2.88,1.04,5.73,2.15,8.58,3.28,4.21,1.67-2.77-1.26,1.4.57,1.71.75,3.42,1.51,5.11,2.29,14,6.48,27.34,14.37,39.7,23.61.71.53,1.42,1.07,2.12,1.61-3.67-2.79,0,.05.57.5,1.4,1.13,2.79,2.28,4.16,3.45,3.32,2.81,6.55,5.73,9.69,8.74,6.36,6.09,12.32,12.57,17.93,19.35,6.03,7.28,19.3,6.71,25.46,0,7.1-7.74,6.43-17.69,0-25.46-38-45.86-92.61-74.59-150.93-84.61-43.42-7.46-87.6-6.43-130.91,1.22-8.26,1.46-16.58,3.06-24.64,5.39-11.61,3.35-16.09,16.09-10.76,26.44,39.23,76.18,99.74,141.56,168.45,192.23,4.93,3.64,9.9,7.25,15.06,10.57,7.94,5.1,20.22,1.89,24.63-6.46,4.72-8.93,2.01-19.19-6.46-24.63h0Z"/>
    <path class="cls-3" d="m953.34,244.95c-26.07-39.73-52.15-79.46-78.22-119.18-3.7-5.64-7.4-11.28-11.11-16.92-3.59,8.81-7.17,17.63-10.76,26.44,3.1-.53-6.68.73-2.36.33,2.22-.21,4.44-.39,6.67-.48,8.41-.36,16.85.02,25.22.83,1.47.14,2.94.3,4.41.47.69.08,1.39.17,2.08.25,3.28.38-4.14-.6-1.79-.25,3.19.48,6.39.95,9.57,1.51,7.27,1.29,14.48,2.88,21.63,4.72,8.56,2.21,17.03,4.79,25.39,7.68,4.32,1.49,8.61,3.07,12.86,4.72,2.23.87,4.46,1.75,6.67,2.66.89.37,3.99,1.68.46.17,1.62.69,3.23,1.39,4.84,2.1,25.38,11.19,49.53,24.97,72.59,40.36,7.85,5.24,20.27,1.79,24.63-6.46,4.78-9.06,1.92-19.04-6.46-24.63-38.63-25.78-80.9-47.34-125.8-59.81-23.89-6.64-49.23-11.09-74.12-10.41-5.37.15-10.76.61-16.07,1.51-11.23,1.91-16.69,17.41-10.76,26.44,26.07,39.73,52.15,79.46,78.22,119.18,3.7,5.64,7.4,11.28,11.11,16.92,5.16,7.86,16.16,11.91,24.63,6.46,7.85-5.06,11.98-16.21,6.46-24.63h0Z"/>
    <path class="cls-3" d="m905.86,414.58l-.09-.12c-.04-.05,0,.02,0,.02.03.12.11.26.18.41,2.53,4.57,5.93,8.47,9.6,12.29,14.45,14.54,33.57,24.28,53.19,30.28,24.27,7.44,49.61,9.73,75.03,9.29-34.13,6.94-70.4,8.82-104.33-.66-21.43-6.1-42.73-16.7-57.67-33.84-.37-.42-.75-.95-1.1-1.41,0,0-.26-.38-.26-.38l25.45-15.88h0Z"/>
    <path class="cls-3" d="m981.45,314.35c.76.5,1.49,1.02,2.23,1.55.95.68,1.88,1.39,2.82,2.08,2.78,2.04-3.04-2.41-1.63-1.27.58.47,1.17.92,1.75,1.38,7.1,5.67,13.81,11.82,20.14,18.33,4.17,4.29,8.18,8.75,11.99,13.36,1.1,1.33,2.16,2.68,3.24,4.02-1.86-2.31-.77-1.01.41.56,2.19,2.93,4.3,5.93,6.33,8.97,4.03,6.05,7.73,12.32,11.02,18.8,1.61,3.17,3.11,6.38,4.55,9.63-1.7-3.83.87,2.22,1.13,2.91.75,1.97,1.46,3.96,2.15,5.96,3.06,8.91,12.39,15.68,22.14,12.57,7.02-2.24,14.15-4.1,21.35-5.61,3.66-.77,7.33-1.44,11.02-2.04,1.86-.3,3.87-.36,5.68-.85-.35.09-4.49.55-1.33.19,1.16-.13,2.33-.28,3.49-.41,16.63-1.82,33.45-2.06,50.12-.61,2.09.18,4.18.39,6.27.63,1.21.14,2.59.15,3.76.46-4.05-1.07-2.18-.31-1.02-.12,4.6.73,9.19,1.49,13.75,2.45,8.52,1.79,16.94,4.1,25.16,6.98,1.81.63,3.6,1.29,5.39,1.98,1.19.46,2.37.94,3.56,1.41,3.03,1.21-.34-.23-.77-.33,4.25.97,8.82,4.07,12.64,6.12s7.44,4.19,11.03,6.5c1.8,1.16,3.58,2.36,5.32,3.6.7.5,1.4,1,2.09,1.51.69.51,1.38,1.02,2.07,1.54-1.76-1.37-2.13-1.65-1.09-.83,6.71,6.07,13.45,11.73,19.38,18.63,1.46,1.7,2.88,3.44,4.26,5.2-2.84-3.61,1.38,2.04,2.04,2.95,4.02,5.6,8.41,10.98,12.94,16.18,7.63,8.76,16.3,18.08,27.54,22,.62.22,1.11.39-1.29-.54-3.85-1.49.34.34.94.64.83.42,1.66.83,2.5,1.25,4.71,2.36,9.42,4.72,14.09,7.15,9.11,4.74,18.1,9.76,26.68,15.41,2.14,1.41,4.25,2.85,6.34,4.35,1.05.75,2.08,1.51,3.11,2.28,2.75,2.03.57.45.04.02,4.47,3.6,8.78,7.36,12.82,11.43,1.86,1.87,3.66,3.8,5.39,5.79.88,1,1.73,2.02,2.57,3.05.71.87,1.89,3.56.65.8.37.82.8,1.63,1.19,2.44l.57,1.22c.83,1.85.74,1.62-.27-.69.27.18.67,1.88.8,2.34.22.74.4,1.49.54,2.26-.28-2.82-.43-3.52-.44-2.12.06,1.28.86-4.2,1.21-4.85.46-.87,3.07-4.74,4.69-4.18-.48-.16-2.4.53-2.99.68-2.68.68,4.69-.42,2.51-.33-.86.03-1.74.18-2.6.25-1.56.13-3.12.21-4.68.28-8,.34-16.03.22-24.03,0-11.13-.29-22.26-.79-33.36-1.52-9.41-.62-18.42,8.72-18,18,.46,10.28,7.91,17.34,18,18s20.41,1.14,30.62,1.45c13.87.42,29.93,1.93,43.46-1.9,15.76-4.46,23.76-18.71,20.08-34.43-2.94-12.6-11.59-23-20.47-31.97-16.52-16.67-36.86-29.06-57.57-39.78-7.59-3.93-15.4-8.66-23.48-11.44-1.68-.58,5.66,3.17,1.96.69-.6-.4-1.21-.82-1.83-1.21-1.4-.88-1.99-2.47,1.79,1.4-.47-.49-1.12-.92-1.63-1.36-7.04-6.07-13.24-13.33-18.95-20.65-3.7-4.75,1.42,2.28-1.14-1.65-.49-.76-1.07-1.49-1.6-2.22-2.11-2.87-4.3-5.7-6.54-8.48-3.2-3.98-6.61-7.78-10.22-11.39-27.98-27.97-65.94-44.56-104.7-50.66-40.07-6.31-82.22-4.4-121.01,7.99,7.38,4.19,14.76,8.38,22.14,12.57-14.66-42.64-44.76-82.81-82.68-107.79-7.88-5.19-20.25-1.82-24.63,6.46-4.76,9.01-1.95,19.09,6.46,24.63h0Z"/>
    <path class="cls-3" d="m1084.47,685.03c50.29,29.87,115.37,19.56,164.89-6.83,6.76-3.77,13.58-7.98,19.38-12.9,0,0,4.93-4.18,4.93-4.18,10.99,5.5,23.01,10.35,34.91,11.96,27.58,4.96,57.15-8.94,71.81-31.14,4.75-7.07,8.01-14.84,8.55-22.49,1.85-30.49-33.59-43.53-58.53-51.78,0,0,.25-2.99.25-2.99,20.17-2.89,42.95-.55,60.75,10.72,29.46,18.48,33.17,55.47,15.09,83.51-29.21,45.44-92.57,50.1-136.13,24.15,0,0,11.49-1.07,11.49-1.07-3.87,2.85-7.79,5.3-11.76,7.55-55.47,29.68-134.98,37.82-187.34-2.04,0,0,1.69-2.48,1.69-2.48h0Z"/>
    <path class="cls-4" d="m1223.32,694.98c4.92,49.98,35.08,109.28,35.08,109.28"/>
    <path class="cls-4" d="m948.37,706.15s-12.54-103.33,42.27-241.64"/>
    <ellipse class="cls-3" cx="1152.57" cy="513.8" rx="29.57" ry="29.21"/>
    <path class="cls-3" d="m743.83,1266.31c1.45-24.18,2.9-48.37,4.35-72.55,2.31-38.55,4.62-77.11,6.93-115.66.53-8.86,1.06-17.71,1.59-26.57.56-9.42-8.68-18.42-18-18-10.23.46-17.4,7.91-18,18-1.45,24.18-2.9,48.37-4.35,72.55-2.31,38.55-4.62,77.11-6.93,115.66-.53,8.86-1.06,17.71-1.59,26.57-.56,9.42,8.68,18.42,18,18,10.23-.46,17.4-7.91,18-18h0Z"/>
    <path class="cls-3" d="m1202.8,1256.2c-1.84-13.86-.85-28.28.71-42.1.46-4.03-.31,1.67.2-1.51.27-1.69.52-3.38.81-5.07.61-3.55,1.31-7.09,2.1-10.6,1.67-7.41,3.74-14.72,6.22-21.9,5.27-15.25,13.15-30.34,23.44-44.77,4.71-6.6,1.16-16.69-5.38-20.52-7.53-4.41-15.81-1.23-20.52,5.38-26.78,37.57-40.04,85.23-38.29,131.26.12,3.27.29,6.57.72,9.83,1.03,7.75,6.16,15.4,15,15,7.24-.32,16.1-6.67,15-15h0Z"/>
  </g>
</svg>